# xmcd
#
# Track frame offsets:
#	182
#	12657
#	25012
#	38930
#	50612
#	59760
#	72410
#	85770
#	98052
#	109487
#	118610
#	132272
#
# Disc length: 1912 seconds
#
# Revision: 0
# Processed by: cddbd v1.5.2PL0 Copyright (c) Steve Scherf et al.
# Submitted via: dBpowerAMP V4.0
#
DISCID=ab07760c
DTITLE=The Harmonizing Four - Negro Spirituals Volume 1957-1959
DYEAR=1959
DGENRE=Negro Spirituals
TTITLE0=All Things Are Possible
TTITLE1=Farther Along
TTITLE2=Motherless Child
TTITLE3=Where Could I Go But To The Lord
TTITLE4=Happy Home
TTITLE5=In Jerusalem
TTITLE6=I Shall Not Be Moved
TTITLE7=Lived And He Loved Me
TTITLE8=His Eye Is On The Sparrow
TTITLE9=When I've Done My Best
TTITLE10=Go Down Moses
TTITLE11=Will He Welcome Me
EXTD=
EXTT0=
EXTT1=
EXTT2=
EXTT3=
EXTT4=
EXTT5=
EXTT6=
EXTT7=
EXTT8=
EXTT9=
EXTT10=
EXTT11=
PLAYORDER=
